<?xml version="1.0" encoding="utf-8"?>
<!-- Generator: Adobe Illustrator 25.4.1, SVG Export Plug-In . SVG Version: 6.00 Build 0)  -->
<svg version="1.1" id="Layer_1" xmlns="http://www.w3.org/2000/svg" xmlns:xlink="http://www.w3.org/1999/xlink" x="0px" y="0px"
	 viewBox="0 0 1392.5 349.3" style="enable-background:new 0 0 1392.5 349.3;" xml:space="preserve">
<style type="text/css">
	.st0{clip-path:url(#XMLID_00000175315853333360353980000005178350741305100711_);fill:#D0D1D3;}
	.st1{fill:#583B1C;}
	.st2{fill:#F1F1F2;}
</style>
<image style="display:none;overflow:visible;" width="592" height="484" xlink:href="La_ratatouille_sign.png"  transform="matrix(1 0 0 1 -97.1265 -83.5264)">
</image>
<g>
	<g>
		<defs>
			<path id="XMLID_00000028323323969228220920000017048605050418984609_" d="M175.1,68l-11-12.7c0,0,0.9-27.9,26.6-43.8
				s48.9-10.6,48.9-10.6l7,13.3l-4,16.9l37.5,51l-30.8,30.8l-56.7-45.2L175.1,68z"/>
		</defs>
		<use xlink:href="#XMLID_00000028323323969228220920000017048605050418984609_"  style="overflow:visible;fill:#F1F1F2;"/>
		<clipPath id="XMLID_00000150796329305036977580000002690358316188735159_">
			<use xlink:href="#XMLID_00000028323323969228220920000017048605050418984609_"  style="overflow:visible;"/>
		</clipPath>
		
			<circle style="clip-path:url(#XMLID_00000150796329305036977580000002690358316188735159_);fill:#D0D1D3;" cx="265.3" cy="101.3" r="47.7"/>
	</g>
	<path d="M213.8,171.2c0,0,9.5-23.1,13-28c3.5-4.9,4.3-8.7,2.3-9.2c-2-0.6-5.8,7.5-12.1,6.9s-23.1-1.2-26-16.7s14.4-23.4,31.7-21.6
		c17.3,1.7,17.6,0,18.8-2c1.2-2,10.4-14.4,22.5-21.1c12.1-6.6,35.5-13.8,51.3-16.4c15.9-2.6,29.4-6.9,34.3,0
		c4.9,6.9-4.9,10.4-5.2,15c-0.3,4.6-2.6,7.2-4,14.1c-1.4,6.9-19.3,12.1-24.2,18.8s-8.7,17.6-23.9,21.9c1.4,8.7,2.9,16.2,2,42.4
		c25.4,2,29.2,3.9,29.2,3.9s5.6,6,2.9,20.2c-2.7,14.2-8.8,26.3-6.9,41.9c1.9,15.6-0.4,25.6-14.8,19.8l-2.7-11.2
		c0,0,7.9-8.1-5.8-20.1c3.3-4.3,12.2,1.2,12.2,1.2s-1.2-18.8-0.5-23.2c0.7-4.4,2.1-11.8-0.6-12.9c-2.7-1.1-18.8,4.8-18.8,4.8
		s-2.1,29.3-8.5,44.6s-6.9,18.2-6.3,25.4c0.6,7.2,6.1,29.4-4.9,44.4c-11,15-18.5,21.3-14.7,23.9c3.8,2.6,21.1-2.6,26,3.2
		c4.9,5.8,3.4,8,3.4,8H112.9c0,0-36.3-3.1-44.7-34.8s0.6-62.3,0-68.1c-0.6-5.8,1.4-64-27.4-66.3S1.5,209.5,22,226
		c-15,3.2-28.7-27.7-13.6-43.8s41.4-19.5,53.1-3.5s16.2,35.5,16.7,70.4c0.6,34.9-3.2,94.9,50.5,77.3c-6.6-27.4-1.4-47.9,4-64.6
		s31.4-47.6,47.3-54.8s18.8-9.1,19-15.9c-7.5-4.4-30-13.8-30-13.8s1.7-19,8.5-26.2c-9.8-2.3-18.3-11.3-18.3-11.3l7.3-13.5l1.5,11.3
		l8.3-7.1l15.7,16.3l0.4,8.5c0,0-9.7,5-8.3,12.1C193,168.8,213.8,171.2,213.8,171.2z"/>
	
		<ellipse transform="matrix(0.6588 -0.7523 0.7523 0.6588 -18.8776 101.8894)" class="st1" cx="102.9" cy="71.8" rx="46.9" ry="55.4"/>
	
		<rect x="231.6" y="-3.1" transform="matrix(0.6588 -0.7523 0.7523 0.6588 -62.3103 245.6013)" class="st1" width="16" height="389.1"/>
	<path d="M276.9,252.5c-3.3,8.6-3.6,11.6-3.1,17.3c0.6,7.2,6.1,29.4-4.9,44.4c-11,15-18.5,21.3-14.7,23.9c3.8,2.6,21.1-2.6,26,3.2
		c4.9,5.8,3.4,8,3.4,8H112.9c0,0-36.3-3.1-44.7-34.8s0.6-62.3,0-68.1c-0.6-5.8,1.4-64-27.4-66.3S1.5,209.5,22,226
		c-15,3.2-28.7-27.7-13.6-43.8s41.4-19.5,53.1-3.5s16.2,35.5,16.7,70.4c0.6,34.9-3.2,94.9,50.5,77.3c-6.6-27.4-1.4-47.9,4-64.6
		s31.4-47.6,47.3-54.8s18.8-9.1,19-15.9c-7.5-4.4-30-13.8-30-13.8s1.7-19,8.5-26.2c-9.8-2.3-18.3-11.3-18.3-11.3l7.3-13.5l1.5,11.3
		l8.3-7.1v18.3l10.7,9.2c0,0-4.2,2.3-2.9,9.4c2.4,0.4,5.8,0.8,9.4,1.3"/>
	<path d="M222.6,151.2c1.7-3.5,3.2-6.5,4.2-8c3.5-4.9,4.3-8.7,2.3-9.2c-2-0.6-5.8,7.5-12.1,6.9s-23.1-1.2-26-16.7
		s14.4-23.4,31.7-21.6c17.3,1.7,17.6,0,18.8-2c1.2-2,10.4-14.4,22.5-21.1c12.1-6.6,35.5-13.8,51.3-16.4c15.9-2.6,29.4-6.9,34.3,0
		c4.9,6.9-4.9,10.4-5.2,15c-0.3,4.6-2.6,7.2-4,14.1c-1.4,6.9-19.3,12.1-24.2,18.8s-8.7,17.6-23.9,21.9c1.4,8.7,2.9,16.2,2,42.4
		c25.4,2,29.2,3.9,29.2,3.9s5.6,6,2.9,20.2c-2.7,14.2-8.8,26.3-6.9,41.9c1.9,15.6-0.4,25.6-14.8,19.8l-2.7-11.2
		c0,0,7.9-8.1-5.8-20.1c3.3-4.3,12.2,1.2,12.2,1.2s-1.2-18.8-0.5-23.2c0.7-4.4,2.1-11.8-0.6-12.9c-2.7-1.1-18.8,4.8-18.8,4.8
		s-0.1,1.7-0.4,4.5"/>
	<circle class="st2" cx="270.1" cy="95.3" r="8.1"/>
</g>
<g>
	<g>
		<path d="M548.4,108.8c-0.9,4.6-5,19.3-6.4,23.5h-65.9v-4.1c12.7-1.2,13.8-1.9,13.8-13.8V59.2c0-11.9-1.4-12.7-12.5-13.7v-4.1h38.6
			v4.1c-11.1,1.1-12.7,1.7-12.7,13.7v56.5c0,8.4,1,10.6,8.9,10.8c0.2,0,9.6,0.1,10.4,0.1c7.3,0,9.4-1,12.6-4.5
			c3.3-3.5,6.4-9.2,8.6-14.4L548.4,108.8z"/>
		<path d="M601,134c-2.4,0-5.5-1.1-7-2.7c-1.8-1.8-2.7-3.8-3.4-6.1c-5.5,3.7-12.4,8.8-16.4,8.8c-10.3,0-17.4-8.5-17.4-17.4
			c0-7,3.7-11.2,11.4-13.9c8.5-3,19.1-6.6,22.2-9.1v-3.4c0-9.5-4.6-14.9-11.7-14.9c-3.1,0-5,1.5-6.4,3.1c-1.6,2-2.5,5-3.7,9.1
			c-0.8,2.5-2.2,3.5-4.4,3.5c-2.8,0-6.5-2.9-6.5-6.4c0-2.1,1.8-3.8,4.7-5.8c4.5-3.2,12.6-8.1,20.6-9.8c4.5,0,8.9,1.3,12.2,3.8
			c5.1,4.2,7.2,9.2,7.2,16.4v26.5c0,6.5,2.4,8.4,4.8,8.4c1.6,0,3.4-0.6,4.9-1.5l1.4,4.1L601,134z M590.3,98.6
			c-3,1.5-8.9,4.2-12.1,5.6c-5.1,2.4-8.2,5-8.2,10.1c0,7.5,5.6,10.8,9.8,10.8c3.3,0,7.8-1.9,10.5-4.5
			C590.3,113.9,590.3,105.2,590.3,98.6z"/>
	</g>
</g>
<g>
	<g>
		<path d="M490.3,264c-1.3,0-4,0-6.6-0.2c-27.9-1.3-36.1-7.3-42.7-16.5c-8.8-12.1-15.2-25.5-22.7-38.7c-3.3-5.9-6.4-7.3-13.4-7.3
			l-4.4-0.2v32.1c0,17.8,2.2,19.4,18.7,21.3v8.1h-67.3v-8.1c16.7-1.8,18.7-3.5,18.7-21.3V149c0-17.4-2.2-19.8-18.7-21.1v-8.1h63.8
			c19.6,0,30.8,2.2,39.8,8.4c8.8,5.9,14.7,15.6,14.7,29.3c0,19.6-13,29.9-27.5,35.6c3.3,6.6,11.9,20.9,18.5,31
			c7.7,12.1,12.5,18,16.7,22.9c5.1,5.7,7.5,7.5,13.9,9.7L490.3,264z M406.4,192.1c9.5,0,16.7-1.5,21.6-5.7
			c7.3-6.2,10.3-14.5,10.3-25.7c0-23.3-13.4-31.7-25.7-31.7c-5.9,0-8.8,0.9-10.1,2.2c-1.5,1.3-2,4-2,8.4v52.6H406.4z"/>
		<path d="M566.6,265.4c-5.9,0-10.8-2-13.6-4.6c-3.1-2.6-4.6-5.7-5.7-8.1c-8.4,5.5-19.1,12.8-23.3,12.8c-18.9,0-29.9-14.7-29.9-28.4
			c0-11.7,5.3-16.9,16.9-21.6c13-4.8,30.4-10.1,35.4-14.5v-9.7c0-11.4-4.2-17.8-13.6-17.8c-3.7,0-6.8,1.8-8.8,4.4
			c-2.6,3.5-3.5,7.9-5.3,14.5c-1.5,5.9-5.1,7.5-9.5,7.5c-5.7,0-13-5.3-13-11.4c0-4,2.6-6.8,7.7-10.3c9.9-6.6,22.9-13,35.2-15.6
			c8.8,0,16.3,2,22.7,6.4c9.5,6.6,12.1,15.8,12.1,27.1v38.1c0,10.6,3.5,13.2,7,13.2c2.2,0,4.4-0.7,6.8-1.8l2.4,7.5L566.6,265.4z
			 M546.4,209.9c-4,2.2-7.9,4.4-12.3,6.8c-6.8,3.5-10.8,7.5-10.8,15c0,12.3,8.6,16.7,13.4,16.7c3.1,0,6.2-0.2,9.7-3.5
			C546.4,234.6,546.4,220.3,546.4,209.9z"/>
		<path d="M645.4,262.9c-3.7,1.8-7.3,2.4-8.8,2.4c-16.9,0-27.1-7.9-27.1-27.9V176h-14.1l-1.3-2.6l6.4-8.4h9v-18.3
			c7.5-5.3,18.3-12.3,26-17.6l2.9,1.8c-0.2,5.9-0.7,17.6-0.4,34.1h22c2,2.2,1.1,9-1.8,11h-20.2v53.9c0,17.2,7,19.1,11.2,19.1
			c3.7,0,6.6-0.7,10.6-2.2l2.2,7.9L645.4,262.9z"/>
		<path d="M745,265.4c-5.9,0-10.8-2-13.6-4.6c-3.1-2.6-4.6-5.7-5.7-8.1c-8.4,5.5-19.1,12.8-23.3,12.8c-18.9,0-29.9-14.7-29.9-28.4
			c0-11.7,5.3-16.9,16.9-21.6c13-4.8,30.4-10.1,35.4-14.5v-9.7c0-11.4-4.2-17.8-13.6-17.8c-3.7,0-6.8,1.8-8.8,4.4
			c-2.6,3.5-3.5,7.9-5.3,14.5c-1.5,5.9-5.1,7.5-9.5,7.5c-5.7,0-13-5.3-13-11.4c0-4,2.6-6.8,7.7-10.3c9.9-6.6,22.9-13,35.2-15.6
			c8.8,0,16.3,2,22.7,6.4c9.5,6.6,12.1,15.8,12.1,27.1v38.1c0,10.6,3.5,13.2,7,13.2c2.2,0,4.4-0.7,6.8-1.8l2.4,7.5L745,265.4z
			 M724.8,209.9c-4,2.2-7.9,4.4-12.3,6.8c-6.8,3.5-10.8,7.5-10.8,15c0,12.3,8.6,16.7,13.4,16.7c3.1,0,6.2-0.2,9.7-3.5
			C724.8,234.6,724.8,220.3,724.8,209.9z"/>
		<path d="M823.8,262.9c-3.7,1.8-7.3,2.4-8.8,2.4c-16.9,0-27.1-7.9-27.1-27.9V176h-14.1l-1.3-2.6l6.4-8.4h9v-18.3
			c7.5-5.3,18.3-12.3,26-17.6l2.9,1.8c-0.2,5.9-0.7,17.6-0.4,34.1h22c2,2.2,1.1,9-1.8,11h-20.2v53.9c0,17.2,7,19.1,11.2,19.1
			c3.7,0,6.6-0.7,10.6-2.2l2.2,7.9L823.8,262.9z"/>
		<path d="M903.2,162.4c31,0,50.6,23.3,50.6,49.7c0,35.4-25.5,53.2-51.5,53.2c-33.2,0-52.1-25.1-52.1-50.8
			C850.2,180.9,877.9,162.4,903.2,162.4z M900.5,171.2c-9.5,0-18.7,9.9-18.7,37c0,27.3,9,48.2,22.9,48.2c8.4,0,17.4-5.7,17.4-37.8
			C922.1,187.9,914.2,171.2,900.5,171.2z"/>
		<path d="M1078.1,257.4c-13.2,1.8-27.3,4.6-41.8,7.9c0-4.8,0-10.1,0-15c-9,7.5-18.3,15-30.4,15c-18.5,0-28.8-11.9-28.8-31.5v-45.5
			c0-10.1-1.3-11.2-7.3-12.8l-4.6-1.3v-7c11.2-0.4,28.6-2,40.9-3.7c-0.4,9.2-0.7,20.7-0.7,33.2v32.1c0,14.3,7.3,19.1,15,19.1
			c6.2,0,11-1.3,15.8-6.4v-53c0-10.1-1.1-11.9-7.3-13l-6.6-1.3v-7c12.8-0.4,31.5-2,42.5-3.7v71.7c0,11.4,1.3,13.9,8.4,14.5l4.8,0.4
			V257.4z"/>
		<path d="M1088,262.7v-7.5c11.9-1.5,13.2-2.4,13.2-18v-42.9c0-14.7-1.1-15.6-11.4-16.9v-7.3c13.9-1.5,27.7-4.4,39.8-7.9
			c0,9.2,0,18.3,0,27.3v47.7c0,15,0.9,16.5,13.6,18v7.5H1088z M1113.7,148.8c-8.4,0-15.8-7-15.8-15.6c0-9,7.5-15.6,16.1-15.6
			c8.8,0,15.8,6.6,15.8,15.6C1129.8,141.7,1122.7,148.8,1113.7,148.8z"/>
		<path d="M1150.9,262.7v-7.5c12.5-2,13-3.1,13-16.9V138.2c0-11.4-1.3-12.8-12.8-15.2v-7c15.2-1.5,30.6-4.2,41.1-7.5
			c0,9.9,0,19.8,0,29.9v99.9c0,14.5,0.7,15.4,13.2,16.9v7.5H1150.9z"/>
		<path d="M1213.6,262.7v-7.5c12.5-2,13-3.1,13-16.9V138.2c0-11.4-1.3-12.8-12.8-15.2v-7c15.2-1.5,30.6-4.2,41.1-7.5
			c0,9.9,0,19.8,0,29.9v99.9c0,14.5,0.7,15.4,13.2,16.9v7.5H1213.6z"/>
		<path d="M1365.4,241.2c-13.4,19.8-31,24.2-40.3,24.2c-29.5,0-46.2-21.8-46.2-48c0-15.4,7.3-30.6,16.5-39.6
			c9.9-9.9,22.2-15.4,34.3-15.4c21.6,0,36.5,17.8,36.3,35.9c0,3.7-0.2,7.5-2.9,8.1c-4.2,1.1-35.2,2.6-56.5,3.5
			c0.9,23.3,13.9,35.2,29.7,35.2c8.6,0,17.2-3.1,25.1-9.9L1365.4,241.2z M1325.4,171.4c-8.8,0-16.3,10.3-17.6,27.7
			c9-0.2,17.4-0.4,26.6-0.7c3.1-0.2,4.4-0.7,4.4-4.4C1339,183.1,1333.9,171.4,1325.4,171.4z"/>
	</g>
</g>
</svg>
