<?xml version="1.0" encoding="utf-8"?>
<!-- Generator: Adobe Illustrator 25.4.1, SVG Export Plug-In . SVG Version: 6.00 Build 0)  -->
<svg version="1.0" id="Layer_1" xmlns="http://www.w3.org/2000/svg" xmlns:xlink="http://www.w3.org/1999/xlink" x="0px" y="0px"
	 viewBox="0 0 410 410" style="enable-background:new 0 0 410 410;" xml:space="preserve">
<style type="text/css">
	.st0{fill:#FF8A5B;}
	.st1{fill:#F1F1F2;}
	.st2{clip-path:url(#SVGID_00000067946104296177800100000006562130637114398142_);fill:#D0D1D3;}
	.st3{fill:#583B1C;}
</style>
<g id="Layer_2_00000025437310676659196930000006137885273389125032_">
	<path class="st0" d="M349.7,409.9H60.2C27,409.9,0,383,0,349.7V60.2C0,27,27,0,60.2,0h289.5c33.3,0,60.2,27,60.2,60.2v289.5
		C409.9,383,383,409.9,349.7,409.9z"/>
</g>
<g id="Layer_1_00000126310485893666235900000005981583744874060952_">
	
		<image style="display:none;overflow:visible;enable-background:new    ;" width="592" height="484" xlink:href="La_ratatouille_sign.png"  transform="matrix(0.9323 0 0 0.9323 -70.9528 -20.6101)">
	</image>
	<g>
		<g>
			<g>
				<path id="XMLID_00000028323323969228220920000017048605050418984609_" class="st1" d="M184,100.3l-10.7-12.5
					c0,0,0.9-27.4,26.1-43.1s48-10.3,48-10.3l6.9,13.1l-4,16.6l36.8,50.1l-30.2,30.2L201.2,100L184,100.3z"/>
			</g>
			<g>
				<g>
					<defs>
						<path id="SVGID_1_" d="M184,100.3l-10.7-12.5c0,0,0.9-27.4,26.1-43.1s48-10.3,48-10.3l6.9,13.1l-4,16.6l36.8,50.1l-30.2,30.2
							L201.2,100L184,100.3z"/>
					</defs>
					<clipPath id="SVGID_00000060013936830891067540000007681072958181916564_">
						<use xlink:href="#SVGID_1_"  style="overflow:visible;"/>
					</clipPath>
					
						<circle style="clip-path:url(#SVGID_00000060013936830891067540000007681072958181916564_);fill:#D0D1D3;" cx="272.5" cy="133" r="46.8"/>
				</g>
			</g>
		</g>
		<path d="M222,201.6c0,0,9.3-22.7,12.8-27.5c3.4-4.8,4.3-8.5,2.2-9c-2.1-0.6-5.7,7.4-11.9,6.8s-22.7-1.1-25.5-16.4
			s14.2-22.9,31.1-21.3c17,1.7,17.2,0,18.4-2s10.2-14.2,22.1-20.7s34.9-13.6,50.4-16.1s28.9-6.8,33.7,0c4.8,6.8-4.8,10.2-5.1,14.7
			c-0.3,4.6-2.5,7.1-4,13.9s-19,11.9-23.8,18.4s-8.5,17.2-23.5,21.5c1.4,8.5,2.8,15.8,2,41.6c24.9,2,28.7,3.9,28.7,3.9
			s5.5,5.9,2.8,19.9c-2.6,14-8.7,25.8-6.8,41.1c1.9,15.3-0.4,25.1-14.5,19.5l-2.6-10.9c0,0,7.7-7.9-5.7-19.8c3.2-4.3,12,1.2,12,1.2
			s-1.1-18.4-0.5-22.7c0.7-4.4,2.1-11.7-0.6-12.7c-2.6-1-18.4,4.8-18.4,4.8s-2.1,28.8-8.3,43.8s-6.8,17.8-6.2,24.9
			c0.6,7.1,6,28.9-4.8,43.6c-10.7,14.7-18.1,21-14.5,23.5s20.7-2.5,25.5,3.1s3.3,7.8,3.3,7.8H122.9c0,0-35.7-3-43.9-34.2
			s0.6-61.2,0-66.8c-0.6-5.7,1.4-62.8-26.9-65.2c-28.3-2.3-38.5,28.9-18.4,45c-14.7,3.2-28.2-27.1-13.3-43s40.6-19.1,52.1-3.4
			s15.8,34.9,16.4,69.1s-3.1,93.1,49.6,75.9c-6.5-26.9-1.4-47,4-63.4s30.9-46.7,46.4-53.8s18.5-8.9,18.6-15.6
			c-7.4-4.4-29.5-13.6-29.5-13.6s1.7-18.6,8.3-25.6c-9.6-2.2-17.9-11.1-17.9-11.1l7.2-13.2l1.5,11.1l8.1-7l15.5,16l0.5,8.4
			c0,0-9.5,4.9-8.2,11.9C201.5,199.2,222,201.6,222,201.6z"/>
		
			<ellipse transform="matrix(0.6588 -0.7523 0.7523 0.6588 -39.6007 120.5132)" class="st3" cx="113.1" cy="103.9" rx="46" ry="54.4"/>
		
			<rect x="239.3" y="30.5" transform="matrix(0.6588 -0.7523 0.7523 0.6588 -82.2735 261.5343)" class="st3" width="15.7" height="381.9"/>
		<path d="M283.9,281.4c-3.3,8.5-3.5,11.4-3.1,17.1c0.6,7.1,6,28.9-4.8,43.6c-10.7,14.7-18.1,21-14.5,23.5s20.7-2.5,25.5,3.1
			s3.3,7.8,3.3,7.8H122.9c0,0-35.7-3-43.9-34.2s0.6-61.2,0-66.8c-0.6-5.7,1.4-62.8-26.9-65.2s-38.5,28.9-18.4,45
			c-14.7,3.2-28.2-27.1-13.3-43s40.6-19.1,52.1-3.4s15.8,34.9,16.4,69.1s-3.1,93.1,49.6,75.9c-6.5-26.9-1.4-47,4-63.4
			s30.9-46.7,46.4-53.8s18.5-8.9,18.6-15.6c-7.4-4.4-29.5-13.6-29.5-13.6s1.7-18.6,8.3-25.6c-9.6-2.2-17.9-11.1-17.9-11.1l7.2-13.2
			l1.5,11.1l8.1-7v17.9l10.5,9c0,0-4.2,2.2-2.8,9.2c2.4,0.4,5.7,0.8,9.2,1.3"/>
		<path d="M230.6,181.9c1.7-3.4,3.2-6.4,4.2-7.8c3.4-4.8,4.3-8.5,2.2-9c-2.1-0.6-5.7,7.4-11.9,6.8c-6.2-0.6-22.7-1.1-25.5-16.4
			s14.2-22.9,31.1-21.3c17,1.7,17.2,0,18.4-2s10.2-14.2,22.1-20.7s34.9-13.6,50.4-16.1s28.9-6.8,33.7,0c4.8,6.8-4.8,10.2-5.1,14.7
			c-0.3,4.6-2.5,7.1-4,13.9s-19,11.9-23.8,18.4s-8.5,17.2-23.5,21.5c1.4,8.5,2.8,15.8,2,41.6c24.9,2,28.7,3.9,28.7,3.9
			s5.5,5.9,2.8,19.9c-2.6,14-8.7,25.8-6.8,41.1c1.9,15.3-0.4,25.1-14.5,19.5l-2.6-10.9c0,0,7.7-7.9-5.7-19.8c3.2-4.3,12,1.2,12,1.2
			s-1.1-18.4-0.5-22.7c0.7-4.4,2.1-11.7-0.6-12.7c-2.6-1-18.4,4.8-18.4,4.8s-0.1,1.7-0.4,4.4"/>
		<circle class="st1" cx="277.3" cy="127.1" r="7.9"/>
	</g>
</g>
</svg>
