<?xml version="1.0" encoding="utf-8"?>
<!-- Generator: Adobe Illustrator 25.4.1, SVG Export Plug-In . SVG Version: 6.00 Build 0)  -->
<svg version="1.1" id="Layer_1" xmlns="http://www.w3.org/2000/svg" xmlns:xlink="http://www.w3.org/1999/xlink" x="0px" y="0px"
	 viewBox="0 0 500 500" style="enable-background:new 0 0 500 500;" xml:space="preserve">
<style type="text/css">
	.st0{fill:#FF8A5B;}
</style>
<circle class="st0" cx="250.7" cy="255.2" r="48.2"/>
<path class="st0" d="M363.3,170c-2.6-6.7-5.8-11.6-10.8-16.6c-5.1-5.1-9.9-8.2-16.6-10.8c-5.1-2-12.7-4.3-26.8-5
	c-15.2-0.7-19.8-0.8-58.4-0.8s-43.2,0.1-58.4,0.8c-14.1,0.6-21.7,3-26.8,5c-6.7,2.6-11.6,5.8-16.6,10.8c-5.1,5.1-8.2,9.9-10.8,16.6
	c-2,5.1-4.3,12.7-5,26.8c-0.7,15.2-0.8,19.8-0.8,58.4s0.1,43.2,0.8,58.4c0.6,14.1,3,21.7,5,26.8c2.6,6.7,5.8,11.6,10.8,16.6
	c5.1,5.1,9.9,8.2,16.6,10.8c5.1,2,12.7,4.3,26.8,5c15.2,0.7,19.8,0.8,58.4,0.8s43.2-0.1,58.4-0.8c14.1-0.6,21.7-3,26.8-5
	c6.7-2.6,11.6-5.8,16.6-10.8c5.1-5.1,8.2-9.9,10.8-16.6c2-5.1,4.3-12.7,5-26.8c0.7-15.2,0.8-19.8,0.8-58.4s-0.1-43.2-0.8-58.4
	C367.7,182.7,365.3,175.1,363.3,170z M250.7,329.5c-41,0-74.2-33.2-74.2-74.2s33.2-74.2,74.2-74.2s74.2,33.2,74.2,74.2
	C324.9,296.2,291.6,329.5,250.7,329.5z M327.8,195.4c-9.6,0-17.3-7.8-17.3-17.3c0-9.6,7.8-17.3,17.3-17.3c9.6,0,17.3,7.8,17.3,17.3
	C345.2,187.7,337.4,195.4,327.8,195.4z"/>
<path class="st0" d="M250,0C111.9,0,0,111.9,0,250s111.9,250,250,250s250-111.9,250-250S388.1,0,250,0z M393.9,314.8
	c-0.7,15.4-3.1,25.9-6.7,35.1c-3.7,9.5-8.6,17.6-16.7,25.6c-8,8-16.1,13-25.6,16.7c-9.2,3.6-19.7,6-35.1,6.7s-20.3,0.9-59.6,0.9
	s-44.2-0.2-59.6-0.9c-15.4-0.7-25.9-3.1-35.1-6.7c-9.5-3.7-17.6-8.6-25.6-16.7c-8-8-13-16.1-16.7-25.6c-3.6-9.2-6-19.7-6.7-35.1
	s-0.9-20.3-0.9-59.6s0.2-44.2,0.9-59.6c0.7-15.4,3.1-25.9,6.7-35.1c3.7-9.5,8.6-17.6,16.7-25.6c8-8,16.1-13,25.6-16.7
	c9.2-3.6,19.7-6,35.1-6.7s20.3-0.9,59.6-0.9s44.2,0.2,59.6,0.9c15.4,0.7,25.9,3.1,35.1,6.7c9.5,3.7,17.6,8.6,25.6,16.7
	c8,8,13,16.1,16.7,25.6c3.6,9.2,6,19.7,6.7,35.1s0.9,20.3,0.9,59.6S394.6,299.4,393.9,314.8z"/>
</svg>
